inDegrees=no
num_controls=7
num_derivatives=13
num_iterations=47
num_multipliers=7
num_parameters=0
num_slacks=7
num_states=26
objective=0.569614
objective_accelerations=0.002074
objective_balance=0.004994
objective_effort=0.018203
objective_height=0.536736
objective_ligament=0.007608
solver_duration=477.951551
status=Solve_Succeeded
success=true
DataType=double
version=3
OpenSimVersion=4.5
endheader
time	/jointset/ground_pelvis/pelvis_tilt/value	/jointset/ground_pelvis/pelvis_tx/value	/jointset/ground_pelvis/pelvis_ty/value	/jointset/hip_r/hip_flexion_r/value	/jointset/hip_r/hip_adduction_r/value	/jointset/hip_r/hip_rotation_r/value	/jointset/back/lumbar_extension/value	/jointset/patellofemoral_r/patellar_flexion_r/value	/jointset/knee_r/knee_flexion_r/value	/jointset/knee_r/knee_adduction_r/value	/jointset/knee_r/knee_rotation_r/value	/jointset/ankle_r/ankle_angle_r/value	/jointset/subtalar_r/subtalar_angle_r/value	/jointset/ground_pelvis/pelvis_tilt/speed	/jointset/ground_pelvis/pelvis_tx/speed	/jointset/ground_pelvis/pelvis_ty/speed	/jointset/hip_r/hip_flexion_r/speed	/jointset/hip_r/hip_adduction_r/speed	/jointset/hip_r/hip_rotation_r/speed	/jointset/back/lumbar_extension/speed	/jointset/patellofemoral_r/patellar_flexion_r/speed	/jointset/knee_r/knee_flexion_r/speed	/jointset/knee_r/knee_adduction_r/speed	/jointset/knee_r/knee_rotation_r/speed	/jointset/ankle_r/ankle_angle_r/speed	/jointset/subtalar_r/subtalar_angle_r/speed	/forceset/tau_hip_flexion_r	/forceset/tau_hip_adduction_r	/forceset/tau_hip_rotation_r	/forceset/tau_knee_flexion_r	/forceset/tau_ankle_angle_r	/forceset/tau_subtalar_angle_r	/forceset/tau_lumbar_extension	lambda_cid13_p0	lambda_cid14_p0	lambda_cid14_p1	lambda_cid14_p2	lambda_cid14_p3	lambda_cid14_p4	lambda_cid14_p5	/jointset/ground_pelvis/pelvis_tilt/accel	/jointset/ground_pelvis/pelvis_tx/accel	/jointset/ground_pelvis/pelvis_ty/accel	/jointset/hip_r/hip_flexion_r/accel	/jointset/hip_r/hip_adduction_r/accel	/jointset/hip_r/hip_rotation_r/accel	/jointset/back/lumbar_extension/accel	/jointset/patellofemoral_r/patellar_flexion_r/accel	/jointset/knee_r/knee_flexion_r/accel	/jointset/knee_r/knee_adduction_r/accel	/jointset/knee_r/knee_rotation_r/accel	/jointset/ankle_r/ankle_angle_r/accel	/jointset/subtalar_r/subtalar_angle_r/accel	gamma_cid13_p0	gamma_cid14_p0	gamma_cid14_p1	gamma_cid14_p2	gamma_cid14_p3	gamma_cid14_p4	gamma_cid14_p5
0.5	0.01065177948789379	0.1026148798857199	0.9485108220768386	0.1637109675776982	-0.1497111327509138	-0.07990541616290019	-0.05102271391007982	0.06307026828517449	0.0630702682851866	-0.001790703093195406	-0.03287115359126843	0.05947978268093276	0.09137416209599161	-0.05211086370004676	0.06162655523502876	-0.0001019697904556863	-0.03646208732343975	-0.0005668784068599257	0.002211332292172771	-0.01529836953911611	-0.03339978918453615	-0.03339978918453559	0.002431303433872377	-0.0123664085415649	0.05665593759817569	0.01683756241397604	0.1003690826641866	-0.02986601632349698	0.02822914820672489	-0.2080126406996312	0.1507048347323952	-0.03376770040966962	-0.01426680712994639	-34.4092653662295	2.24099804216135	-19.64594492358486	9.729344769633986	7.210893153355685	-694.9529815761161	49.06699340402008	0.06927145251771889	-0.07758026499498719	4.422312974740648e-05	-0.002860980228261575	0.01344020257359687	0.002678234399375711	0.1128788108904828	-0.04081417748063944	-0.04081417748063816	-0.02238104837568707	-0.007328544382052203	-0.1104404140318167	-0.01813909005136501	1.440589570416291e-11	-1.123745065895687e-10	-8.350348741706218e-10	1.686551846422911e-10	1.920315668173015e-10	-6.048319905476216e-10	-7.396683575326399e-10
0.51	0.01013416231532525	0.1032272133635732	0.9485098047518116	0.1633462685884326	-0.1497161230305074	-0.07988318461186689	-0.05117001095269831	0.0627342849086782	0.06273428490869909	-0.001767525009425583	-0.03299515734543081	0.06004078328744015	0.09154162618664091	-0.05140890500687775	0.06083488686917232	-0.0001011991781691101	-0.0364746741331109	-0.0004307340630144308	0.002234561839547692	-0.01415705864420046	-0.03379575064049603	-0.033795750640496	0.002203478082711207	-0.01243333953875891	0.0555384859533801	0.01665392433823795	0.09968496010546256	-0.0292763977104584	0.0282190391469527	-0.2063471944849117	0.1484024493870574	-0.03410648989152182	-0.01378715356198659	-34.39492767806294	1.486517336360533	-19.86510983409835	9.695665019781023	7.463786384373353	-694.947018721124	48.67302922549776	0.07120796033113146	-0.08074811126631234	0.0001377619034926342	-2.072905800534503e-06	0.01376804904553815	0.00208294066466309	0.1153542800453097	-0.03881681286587657	-0.03881681286590077	-0.02310864869533413	-0.006224921506482498	-0.1132521860158931	-0.01867599091740165	1.968951661212624e-11	-8.098269645178631e-11	-9.273596609414574e-10	1.937119752526599e-10	1.635172999591436e-10	-5.327949532418857e-10	-8.441367593263866e-10
0.52	0.009623674706201662	0.1038314725599908	0.9485088039892331	0.1629815348227484	-0.149719738566919	-0.07986073324020318	-0.05130577547611866	0.06239437598098966	0.0623943759810013	-0.001746650253231399	-0.03311980031838377	0.06059043844823914	0.09170721393161647	-0.05068495100911376	0.0600116989478797	-9.865730072663657e-05	-0.03646904260554598	-0.0002919297689353319	0.002255296417250776	-0.01299186569914547	-0.034184899424946	-0.03418489942494651	0.001970637923197477	-0.01249425230069402	0.05438684845608447	0.01646229327920239	0.09900083754672873	-0.02868677909745073	0.02820893008716871	-0.2046817482702004	0.1461000640417136	-0.03444527937340963	-0.0133074999940307	-34.3804082402375	0.7313413942207475	-20.08425394629194	9.661819151027043	7.724173632730142	-694.9470022129187	48.27974735733686	0.07367051343681363	-0.08388417608231427	0.0003984761609301127	0.0007826872189755872	0.0139721926203287	0.002179240465016494	0.1176552209184071	-0.03945164317862852	-0.03945164317862808	-0.0233840100462211	-0.006124897330273501	-0.1172775845319188	-0.01973768671087602	1.619235633311308e-11	-8.432469594492349e-11	-9.976494016534499e-10	2.389694128510264e-10	1.771659899118973e-10	-3.576268084434539e-10	-9.242668288913212e-10
0.53	0.009120529368277657	0.1044273529314791	0.9485078376473712	0.1626169421864924	-0.1497219540468123	-0.07983809305889926	-0.05142977606500586	0.06205060741567486	0.06205060741569736	-0.001728126120895561	-0.03324501705907505	0.0611284179624438	0.09187084761537079	-0.04994139388561466	0.05916017304538151	-9.433398393197514e-05	-0.03644674425840749	-0.0001509331168307537	0.002272237407413148	-0.01180476323358909	-0.03456774311587241	-0.03456774311587183	0.001733765227982159	-0.01254802855824463	0.05320454687691967	0.01626324215537054	0.09839857693373423	-0.02811116796298266	0.02820151774273212	-0.2031718942220762	0.1440416039777507	-0.03479570726037833	-0.01288686701810323	-34.3657104978203	0.05458879377918106	-20.30261572187252	9.636865932083785	7.92606617049676	-694.9451414676555	47.88525553678496	0.07510672102974982	-0.08641710634296582	0.00049076947361873	0.00336446506442878	0.01419834402297201	0.001376218319138783	0.1197610862660713	-0.03754015665372226	-0.03754015665349445	-0.02390249165799927	-0.004843835655869958	-0.1193825571606982	-0.02016915174378288	1.302196795616518e-11	-9.539984686932575e-11	-1.051215232506796e-09	2.559302870478309e-10	1.896918070189801e-10	-3.159905370460356e-10	-9.593863132363804e-10
